PathFileType  4	(X/Y/Z) C:\Users\antoi\Documents\MyRepositories\mobilecap\ResultsAnalysis
DataRate	CameraRate	NumFrames	NumMarkers	Units	OrigDataRate	OrigDataStartFrame	OrigNumFrames
100.0	100.0	4	51	mm	100.0	354	1414
Frame#	Time	r_knee			r_shank_antsup			r_ankle			r_calc			r_5meta			r_toe			L_knee			L_shank_antsup			L_ankle			L_calc			L_5meta			L_toe			r_sh2			r_sh3			r_sh4			L_sh2			L_sh3			r_thigh1			r_thigh2			r_thigh3			r_thigh4			r_thigh5			L_thigh1			L_thigh2			L_thigh3			L_thigh4			r.ASIS			r.PSIS			L.ASIS			L.PSIS			C7			R_Shoulder			L_Shoulder			R_Sternum			L_Sternum			R_humerus			R_elbow_med			R_elbow_lat			R_forearm			R_wrist_radius			R_wrist_ulna			L_humerus			L_elbow_med			L_elbow_lat			L_forearm			L_wrist_radius			L_wrist_ulna			R_HJC			L_HJC			R_HJC_reg			L_HJC_reg			
		X1	Y1	Z1	X2	Y2	Z2	X3	Y3	Z3	X4	Y4	Z4	X5	Y5	Z5	X6	Y6	Z6	X7	Y7	Z7	X8	Y8	Z8	X9	Y9	Z9	X10	Y10	Z10	X11	Y11	Z11	X12	Y12	Z12	X13	Y13	Z13	X14	Y14	Z14	X15	Y15	Z15	X16	Y16	Z16	X17	Y17	Z17	X18	Y18	Z18	X19	Y19	Z19	X20	Y20	Z20	X21	Y21	Z21	X22	Y22	Z22	X23	Y23	Z23	X24	Y24	Z24	X25	Y25	Z25	X26	Y26	Z26	X27	Y27	Z27	X28	Y28	Z28	X29	Y29	Z29	X30	Y30	Z30	X31	Y31	Z31	X32	Y32	Z32	X33	Y33	Z33	X34	Y34	Z34	X35	Y35	Z35	X36	Y36	Z36	X37	Y37	Z37	X38	Y38	Z38	X39	Y39	Z39	X40	Y40	Z40	X41	Y41	Z41	X42	Y42	Z42	X43	Y43	Z43	X44	Y44	Z44	X45	Y45	Z45	X46	Y46	Z46	X47	Y47	Z47	X48	Y48	Z48	X49	Y49	Z49	X50	Y50	Z50	X51	Y51	Z51	

354	3.53000000	-247.46423	554.61096	-422.22235	-216.19023	431.57845	-427.40710	-300.73313	96.80221	-444.42079	-354.66373	65.07495	-506.61790	-180.89115	35.64778	-373.44618	-127.94921	57.09081	-438.18033	-265.48426	546.85558	-840.19249	-218.78807	448.58398	-855.66121	-291.84239	101.70461	-902.54868	-347.12932	67.91046	-850.89443	-153.75198	34.68911	-954.55978	-115.39862	58.63278	-889.04289	-212.02019	317.99364	-445.01753	-285.06570	422.42894	-391.01598	-275.58782	305.73125	-391.23600	-306.92459	453.66589	-873.19556	-292.20433	337.67822	-912.69985	-138.11428	787.33696	-428.96296	-143.53719	676.28121	-438.40000	-181.12054	648.69633	-391.12689	-232.80821	783.26018	-365.04322	-234.04656	665.85653	-385.20651	-304.56324	792.43908	-831.60807	-292.87164	655.15417	-842.46516	-192.58935	800.73410	-821.92571	-182.76508	665.39422	-839.05489	-159.43994	1052.40078	-454.95932	-362.26340	1098.46296	-541.41406	-163.85534	1029.71174	-720.66046	-364.25085	1095.06120	-638.65611	-267.11619	1586.98268	-572.46486	-187.82833	1501.42425	-388.16707	-174.97545	1540.54380	-745.49003	-132.65364	1499.72118	-551.93651	-133.20127	1498.66348	-593.55143	-148.10138	1342.58922	-317.02040	-165.90868	1106.69340	-347.28040	-138.74623	1145.63548	-266.18942	-10.31705	1224.64690	-340.40202	85.78586	1262.17389	-396.17135	108.56511	1225.29559	-394.74130	-140.47282	1376.76846	-834.84455	-186.53604	1147.54617	-822.80498	-134.31509	1182.52483	-882.95436	-35.72011	1255.62930	-774.83887	62.88280	1285.02187	-715.66053	80.32257	1242.43619	-723.93177	-250.27231	978.33944	-484.25852	-252.00661	950.76861	-695.85474	-239.62412	970.41775	-488.35494	-243.21824	964.26428	-664.23541	
355	3.54000000	-246.13164	554.26782	-421.84833	-215.00934	430.96142	-427.13737	-300.57364	96.74943	-444.49305	-354.61835	65.08631	-506.70072	-180.85495	35.74763	-373.42726	-127.93900	57.14853	-438.23578	-265.00600	546.55312	-840.32020	-218.21742	448.51361	-856.01404	-291.80453	101.68184	-902.49506	-347.08509	67.98657	-850.92246	-153.74639	34.69443	-954.55614	-115.39124	58.62013	-889.02857	-211.14555	317.43793	-444.86097	-283.83010	422.15281	-390.94762	-275.13145	305.69527	-390.85909	-306.27095	453.54931	-873.34597	-291.85178	337.54395	-912.83050	-138.43592	787.61386	-428.96814	-143.23089	676.34571	-438.82006	-180.27601	648.94554	-390.61810	-232.71283	782.88659	-364.57827	-233.64520	666.01834	-384.44183	-304.83253	792.09701	-831.88750	-292.75861	654.72706	-842.93284	-193.01452	800.62587	-821.89641	-182.76088	665.28960	-838.67229	-161.09154	1052.05030	-454.69106	-363.58064	1098.76672	-541.31308	-165.12690	1029.15658	-720.08181	-365.46050	1095.19381	-638.67154	-266.47472	1586.87976	-572.33922	-187.70236	1501.36228	-388.03943	-174.15950	1540.41145	-745.09202	-132.29043	1499.32439	-551.61626	-132.76055	1498.25001	-593.17495	-147.86989	1342.80220	-316.82114	-165.07384	1107.24505	-347.43447	-137.67651	1145.74346	-266.11407	-9.16471	1224.77928	-340.23659	87.31331	1262.15706	-395.91915	109.74199	1225.18109	-394.66377	-139.39328	1376.83484	-834.42031	-185.11051	1147.64846	-822.51545	-132.89433	1182.65045	-882.62596	-34.32891	1255.75787	-774.41423	64.19483	1285.14110	-715.13075	81.62515	1242.50298	-723.42238	-252.10867	978.28775	-483.91499	-253.59063	950.50912	-695.48585	-241.47261	970.53915	-488.00537	-244.86533	964.09127	-663.68268	
356	3.55000000	-244.53152	553.82062	-421.41084	-213.53678	430.19171	-426.78618	-300.40926	96.68692	-444.58540	-354.59331	65.06778	-506.76648	-180.83903	35.76769	-373.40715	-127.93610	57.13681	-438.38586	-264.41676	546.11734	-840.40048	-217.52788	448.25157	-856.24909	-291.76461	101.68534	-902.49994	-347.06681	68.04437	-850.93329	-153.74208	34.70241	-954.55064	-115.37453	58.60985	-888.99729	-210.11158	316.61561	-444.67608	-282.29836	421.64718	-390.85460	-274.06180	305.19922	-390.86881	-305.49796	453.46681	-873.74012	-291.40937	337.43853	-913.03456	-138.78711	787.86056	-429.04663	-142.69915	676.71921	-438.63437	-179.36699	649.21199	-389.93229	-232.57356	782.38631	-364.18814	-233.43089	666.40800	-383.30461	-305.21585	791.65232	-832.18089	-292.56280	654.22763	-843.40226	-193.47909	800.49348	-821.79384	-182.69792	665.23179	-838.45946	-162.93886	1051.56890	-454.47578	-365.04763	1098.97909	-541.25054	-166.72982	1028.61212	-719.72685	-366.85629	1095.31840	-639.21829	-265.63511	1586.71262	-572.27696	-187.49402	1501.27265	-387.91367	-173.19267	1540.19099	-744.80184	-131.81568	1498.84102	-551.35760	-132.14701	1497.66058	-592.74385	-147.54516	1343.00921	-316.52918	-163.89175	1107.30007	-347.51256	-136.52206	1145.83823	-266.10146	-7.80683	1224.84266	-340.03846	89.04766	1261.94919	-395.88503	111.08772	1224.96612	-394.52002	-138.19747	1376.91634	-833.88019	-183.49498	1147.61063	-822.28981	-131.28673	1182.81235	-882.39029	-32.73501	1255.76594	-773.93082	65.70061	1285.10802	-714.62581	83.19788	1242.37565	-723.00135	-254.20280	978.13078	-483.82375	-255.39446	950.24259	-695.38219	-243.53706	970.43635	-487.79398	-246.77910	963.87508	-663.37901	
357	3.56000000	-242.52000	553.24301	-421.04225	-211.70842	429.32309	-426.34020	-300.25859	96.67605	-444.58132	-354.59694	65.03342	-506.82451	-180.82810	35.78137	-373.43141	-127.94248	57.16286	-438.44780	-263.62862	545.80788	-840.97769	-216.69372	447.94532	-856.71253	-291.70564	101.68940	-902.49921	-347.04202	68.01114	-850.84596	-153.73539	34.73505	-954.52587	-115.35529	58.61382	-888.93168	-208.91133	315.72934	-444.53548	-280.58881	421.13837	-390.47100	-272.52758	304.09666	-391.26914	-304.64864	453.45343	-874.40266	-290.72577	337.31365	-913.41478	-139.13284	788.13254	-429.08214	-142.01540	677.25242	-438.14306	-178.30275	649.23838	-389.61022	-232.41226	781.77222	-363.67085	-232.78902	666.34309	-382.26679	-305.80590	790.99791	-832.39369	-292.33846	653.70266	-843.86081	-194.02497	800.35971	-821.55409	-182.53770	665.26229	-838.47880	-164.88666	1050.74928	-454.47361	-366.72934	1099.19936	-541.24553	-168.65137	1028.11979	-719.72310	-368.50227	1095.55136	-639.56553	-264.58266	1586.50028	-572.32389	-187.13443	1501.12300	-387.73206	-172.07314	1539.85178	-744.50729	-131.16281	1498.19569	-551.10938	-131.41540	1496.94170	-592.42515	-147.14021	1343.18510	-316.20027	-162.43614	1107.01106	-347.33192	-135.28322	1145.99540	-265.96533	-6.29662	1224.80173	-339.73934	90.83687	1261.56387	-395.86153	112.65280	1224.58174	-394.22526	-136.89490	1376.95596	-833.36828	-181.67444	1147.47978	-822.10034	-129.41000	1182.91365	-882.16595	-30.97593	1255.63776	-773.41427	67.42839	1284.88498	-714.11598	84.99358	1242.13878	-722.55886	-256.48914	977.76628	-483.98631	-257.62907	950.08827	-695.57233	-245.87627	970.16560	-487.86314	-249.04208	963.65282	-663.43163	
